Simulation
nRows=40
nColumns=15
endheader
time  TH_x TH_y TH_z SC_y  SC_z  SC_x  AC_y  AC_z  AC_x  GH_y  GH_z  GH_yy  EL_x  PS_y
0.0  0.000000  0.000000  0.000000  -40.97484877243665  6.293857566463187  5.290427962726946  44.213684087619626  7.12978151549444  -0.04496154477596075  174.28488535814847  6.8416402716298785  -148.98118769679357  22.669558130733535  120.000000
0.05745  0.000000  0.000000  0.000000  -38.87507830463748  5.679968436071448  2.982226373858784  43.372311220863736  7.4144024046402635  0.1749511282399639  169.123327412057  3.523538252367905  -145.10576618294917  22.07912117061524  120.000000
0.1149  0.000000  0.000000  0.000000  -36.937692376745446  4.911938507239326  0.6690469839384314  42.61834695128312  7.50899857058452  0.43993182991725527  111.59439433264897  0.7466562951185246  -88.8551657816966  21.671935802433808  120.000000
0.17235  0.000000  0.000000  0.000000  -35.26744575483475  4.051070598424303  -1.5561025638847297  41.99450046281868  7.468856043319804  0.7704543426599605  16.215362141638867  2.9094808217327253  5.2364192161527825  21.527381875409407  120.000000
0.2298  0.000000  0.000000  0.000000  -33.91216640696161  3.175242844979408  -3.6295295614724723  41.526263608753574  7.378948941683774  1.1871272952663336  9.700145960375371  5.892624666052921  10.441119523487696  21.654041299040912  120.000000
0.28725  0.000000  0.000000  0.000000  -32.87627459362391  2.3675527748417333  -5.522404595124582  41.204557324218676  7.3384343874172755  1.7118146419451739  7.492031611408994  8.91598409992794  11.289794346252904  21.987935613607924  120.000000
0.3447  0.000000  0.000000  0.000000  -32.147236221678185  1.7063437975792697  -7.2349695163703505  40.99717124475475  7.432897299322124  2.360623867475422  5.968481015512515  12.020579963999019  11.372002332719282  22.428234688484768  120.000000
0.40215  0.000000  0.000000  0.000000  -31.717699158443935  1.2504889053244141  -8.760380866039883  40.86631373350011  7.698608822753494  3.1212067957753393  4.55374913862732  15.265307037239566  11.2325112296239  22.86390043409716  120.000000
0.4596  0.000000  0.000000  0.000000  -31.581053987247337  1.040362214920886  -10.06577163768758  40.782574108752  8.112470111370463  3.9529095234153386  3.175972831307127  18.69583538703112  10.92874974376937  23.201730197611546  120.000000
0.51705  0.000000  0.000000  0.000000  -31.727335528018788  1.100880630592772  -11.10326350163064  40.731440765590776  8.611622541496468  4.81034719625131  1.8723444388457537  22.32235407875214  10.433712502265688  23.380226625353902  120.000000
0.5745  0.000000  0.000000  0.000000  -32.13987598280264  1.4454576023123344  -11.832953642133075  40.717374699853266  9.124620371213203  5.665479547288957  0.6971530824971237  26.10675413558561  9.729423691562932  23.377158026415533  120.000000
0.63195  0.000000  0.000000  0.000000  -32.80510819906627  2.066171864746464  -12.262964444558795  40.761054129354754  9.613144520292405  6.537409275033847  -0.28227360558088227  29.980150264921004  8.80011565947941  23.201933034589338  120.000000
0.6894  0.000000  0.000000  0.000000  -33.71835929053568  2.92798129360373  -12.43485874954478  40.90084483672634  10.06570228466532  7.468663885319688  -0.982764676984464  33.871068904366666  7.614324719909537  22.884357261227343  120.000000
0.74685  0.000000  0.000000  0.000000  -34.87900808949671  3.969126276215074  -12.379342667481074  41.18314769552244  10.476441056683987  8.47991422623517  -1.338181145610038  37.71673139530794  6.1419650618999375  22.462178761630966  120.000000
0.8043  0.000000  0.000000  0.000000  -36.27617564122719  5.119395231123944  -12.111138523417097  41.64421359609692  10.8478141342386  9.564388220797197  -1.3218754673870707  41.45996758345658  4.368247641292512  21.97417910981638  120.000000
0.86175  0.000000  0.000000  0.000000  -37.87835073184868  6.309475350397089  -11.631555296549664  42.29364551109256  11.197236322232579  10.687684637709003  -0.9598097926224209  45.047594700987275  2.3076634267830745  21.45637357319056  120.000000
0.9192  0.000000  0.000000  0.000000  -39.628691756098114  7.477423846446472  -10.934840968616218  43.10233786124805  11.553858248177566  11.792726479010904  -0.32919822629795764  48.42483041115452  0.013593048046725821  20.938130713276408  120.000000
0.97665  0.000000  0.000000  0.000000  -41.44245680481516  8.572690477026093  -10.013700337943577  44.004835900595396  11.948813143607117  12.814333577499099  0.4642511378893683  51.533130618625776  -2.424235372552358  20.43992968249954  120.000000
1.0341  0.000000  0.000000  0.000000  -43.21172389016012  9.56701348378545  -8.860374401458673  44.91577674423956  12.399997983500052  13.694936732699023  1.320807184096393  54.313987197231626  -4.891197370986509  19.97197835478141  120.000000
1.09155  0.000000  0.000000  0.000000  -44.833542752179845  10.45927615827569  -7.470389909219416  45.74616053659407  12.903869364503013  14.393595947759362  2.1629447002005002  56.72308075763536  -7.2567576336364965  19.5356074919154  120.000000
1.149  0.000000  0.000000  0.000000  -46.24247539289684  11.262824608299063  -5.852509715670866  46.42305946795532  13.43707735002  14.892123504765191  2.9398498335498853  58.73806040802037  -9.391093714875641  19.12694550164284  120.000000
1.20645  0.000000  0.000000  0.000000  -47.420204426328326  11.985839422405952  -4.038978311376023  46.910250442599356  13.965386427256911  15.197074988986607  3.6270655016768196  60.35812826493914  -11.191741233041677  18.74125502158118  120.000000
1.2639  0.000000  0.000000  0.000000  -48.3857933763481  12.622752300163075  -2.0923942816282772  47.212317280275066  14.453591127702685  15.334077592499204  4.223492155698012  61.601175944315855  -12.608828726036782  18.378509665026066  120.000000
1.32135  0.000000  0.000000  0.000000  -49.17219859686805  13.157519847111788  -0.10671569366570162  47.3650057915765  14.871318857378219  15.337585692601872  4.741710575809342  62.50045530757156  -13.655772731893133  18.043653961006648  120.000000
1.3788  0.000000  0.000000  0.000000  -49.803613330301715  13.57122142938595  1.7978106898175161  47.418131770645296  15.195267630686487  15.23948399455913  5.19625429463363  63.100183455480376  -14.398790626936112  17.745201338415978  120.000000
1.43625  0.000000  0.000000  0.000000  -50.28511127334138  13.848861256967346  3.483818952029654  47.423394222014366  15.407064257380226  15.062655639825774  5.594691983843967  63.45440793522051  -14.932232207958894  17.492178295072527  120.000000
1.4937  0.000000  0.000000  0.000000  -50.600721919921156  13.981674636981614  4.806362991734034  47.42623256683667  15.489681683957032  14.818842430762556  5.932331500697533  63.6286811431423  -15.348293313110029  17.292302502593813  120.000000
1.55115  0.000000  0.000000  0.000000  -50.72073197564619  13.963232324543988  5.621277101639838  47.46453902040883  15.421792431839123  14.510809002991731  6.190803645044813  63.708012383546375  -15.709460208500081  17.15081660787559  120.000000
1.6086  0.000000  0.000000  0.000000  -50.61381249766513  13.787115621161718  5.807490376771029  47.55895503256374  15.18532302912003  14.14427762582399  6.34575713460011  63.76713616860547  -16.040517299715887  17.070591595095557  120.000000
1.66605  0.000000  0.000000  0.000000  -50.265136516435554  13.447810073165265  5.302988895670106  47.6969550734385  14.785543166655485  13.748121698718965  6.385218784508787  63.80962451561299  -16.343404010098666  17.052047707159982  120.000000
1.7235  0.000000  0.000000  0.000000  -49.68120575497722  12.942364145326318  4.124021401685136  47.82911576370975  14.267906840689989  13.377795420904665  6.317257833977046  63.74350648214379  -16.614199237972556  17.090350025633924  120.000000
1.78095  0.000000  0.000000  0.000000  -48.88056795101734  12.27146581443342  2.3548347991782546  47.88621685760075  13.718645332960644  13.095191172917323  6.161311741353107  63.418159676367964  -16.84943722224505  17.170734077697627  120.000000
1.8384  0.000000  0.000000  0.000000  -47.87967756725693  11.440235245808303  0.11682146220302136  47.80382522580059  13.245060435725591  12.940543928810024  5.9315468284179325  62.69333269395637  -17.045158478387172  17.268713700058186  120.000000
1.89585  0.000000  0.000000  0.000000  -46.6903715340998  10.461523609558407  -2.453134786136061  47.53513128435912  12.951671478956317  12.920150379386337  5.6331267051386735  61.471190345531745  -17.201535473680483  17.355035137897968  120.000000
1.9533  0.000000  0.000000  0.000000  -45.330216797175076  9.358687989764777  -5.213516684622369  47.05278580669955  12.919919158776402  13.01217409634783  5.2722730186808535  59.69696463925402  -17.33215749655798  17.40529848232759  120.000000
2.01075  0.000000  0.000000  0.000000  -43.83832271224197  8.16725550088873  -8.030464065361137  46.353996095007005  13.189902696003935  13.177877344875993  4.868634246166456  57.360691725593426  -17.466098113966147  17.406137251188976  120.000000
2.0682  0.000000  0.000000  0.000000  -42.288774606133614  6.928866007852866  -10.78694336693058  45.45720510665186  13.75197087640483  13.378658704945943  4.46204338511828  54.498495004279256  -17.643201804435563  17.356469920068374  120.000000
2.1256500000000003  0.000000  0.000000  0.000000  -40.786880882662274  5.6953304988369675  -13.389072219423035  44.40058695547423  14.552393370604797  13.58958525802322  4.118395592539773  51.19019198185512  -17.906411635087583  17.262966148959222  120.000000
2.1831  0.000000  0.000000  0.000000  -39.43269299568843  4.528735892409495  -15.768571852965641  43.24449329737932  15.50771376996492  13.804543253292408  3.9351254107773306  47.5401873659709  -18.29486045533855  17.130111362735143  120.000000
2.24055  0.000000  0.000000  0.000000  -38.28987782023293  3.4832520581485693  -17.88124376256256  42.06055847881497  16.520365529682707  14.027929262128952  4.024913247984918  43.64847627969736  -18.825669160334705  16.953483048354542  120.000000
